<svg xmlns="http://www.w3.org/2000/svg" width="16" height="16" viewBox="0 0 16 16" fill="none">
  <g clip-path="url(#clip0_1045_13777)">
    <path d="M0.664062 8.0013C0.664063 9.94622 1.43668 11.8115 2.81195 13.1868C4.18721 14.562 6.05248 15.3346 7.9974 15.3346C9.94232 15.3346 11.8076 14.562 13.1828 13.1868C14.5581 11.8115 15.3307 9.94622 15.3307 8.0013C15.3307 6.05638 14.5581 4.19112 13.1828 2.81585C11.8076 1.44059 9.94232 0.667969 7.9974 0.667969C6.05248 0.667969 4.18721 1.44059 2.81195 2.81585C1.43668 4.19112 0.664063 6.05638 0.664062 8.0013Z" stroke="white" stroke-miterlimit="10"/>
    <path d="M8.66927 4.66536H7.33594V3.33203H8.66927V4.66536Z" fill="white"/>
    <path d="M6 6.66797H8V12.0013M6 11.3346H10" stroke="white" stroke-miterlimit="10"/>
  </g>
  <defs>
    <clipPath id="clip0_1045_13777">
      <rect width="16" height="16" fill="white"/>
    </clipPath>
  </defs>
</svg>