<svg xmlns="http://www.w3.org/2000/svg" width="24" height="24" viewBox="0 0 24 24" fill="none">
  <path d="M21.2605 9.56641H7.60115C6.91533 9.56641 6.35938 10.1223 6.35938 10.8082V20.1214C6.35938 20.8073 6.91533 21.3633 7.60115 21.3633H21.2605C21.9464 21.3633 22.5024 20.8073 22.5024 20.1214V10.8082C22.5024 10.1223 21.9464 9.56641 21.2605 9.56641Z" stroke="white" stroke-linecap="round" stroke-linejoin="round"/>
  <path d="M6.35938 13.9102H22.5024" stroke="white" stroke-linecap="round" stroke-linejoin="round"/>
  <path d="M17.5312 18.2578H19.3938" stroke="white" stroke-linecap="round" stroke-linejoin="round"/>
  <path d="M17.5336 6.58748C17.5336 5.90166 16.9777 5.3457 16.2918 5.3457H2.6324C1.94658 5.3457 1.39062 5.90166 1.39062 6.58748V15.9007C1.39062 16.5866 1.94658 17.1425 2.6324 17.1425H3.143" stroke="white" stroke-linecap="round" stroke-linejoin="round"/>
</svg>