<svg width="28" height="28" viewBox="0 0 28 28" fill="none" xmlns="http://www.w3.org/2000/svg">
<rect width="28" height="28" fill="#B1B1B1"/>
<g id="Mobile">
<path d="M-2719 -1352C-2719 -1353.1 -2718.1 -1354 -2717 -1354H11876C11877.1 -1354 11878 -1353.1 11878 -1352V1025C11878 1026.1 11877.1 1027 11876 1027H-2717C-2718.1 1027 -2719 1026.1 -2719 1025V-1352Z" fill="#424242"/>
<path d="M-2717 -1353H11876V-1355H-2717V-1353ZM11877 -1352V1025H11879V-1352H11877ZM11876 1026H-2717V1028H11876V1026ZM-2718 1025V-1352H-2720V1025H-2718ZM-2717 1026C-2717.55 1026 -2718 1025.55 -2718 1025H-2720C-2720 1026.66 -2718.66 1028 -2717 1028V1026ZM11877 1025C11877 1025.55 11876.6 1026 11876 1026V1028C11877.7 1028 11879 1026.66 11879 1025H11877ZM11876 -1353C11876.6 -1353 11877 -1352.55 11877 -1352H11879C11879 -1353.66 11877.7 -1355 11876 -1355V-1353ZM-2717 -1355C-2718.66 -1355 -2720 -1353.66 -2720 -1352H-2718C-2718 -1352.55 -2717.55 -1353 -2717 -1353V-1355Z" fill="black" fill-opacity="0.1"/>
<g id=" Default Dashboard" clip-path="url(#clip0_693_20092)">
<rect width="390" height="844" transform="translate(-346 -759)" fill="#19161C"/>
<g id="Gradient 2" clip-path="url(#clip1_693_20092)">
<rect width="390" height="844" transform="translate(-346 -759)" fill="#19161C"/>
<g id="Ellipse 879" filter="url(#filter0_f_693_20092)">
<ellipse cx="-53" cy="-410" rx="353" ry="349" fill="#0857D7" fill-opacity="0.6"/>
</g>
<g id="Ellipse 880" filter="url(#filter1_f_693_20092)">
<ellipse cx="-263" cy="35.5" rx="294" ry="290.5" fill="#40BDFF" fill-opacity="0.6"/>
</g>
<g id="Ellipse 881" filter="url(#filter2_f_693_20092)">
<ellipse cx="-150" cy="-203.5" rx="241" ry="237.5" fill="black" fill-opacity="0.7"/>
</g>
</g>
<g id="Scroll Up" filter="url(#filter3_b_693_20092)">
<g clip-path="url(#clip2_693_20092)">
<g id="Frame 632599">
<g id="Frame 632597">
<g id="Frame 1000003773">
<g id="Circle Clock" clip-path="url(#clip3_693_20092)">
<g id="circle-clock--clock-loading-measure-time-circle">
<path id="Vector" d="M14 27C21.1798 27 27 21.1798 27 14C27 6.8203 21.1798 1 14 1C6.8203 1 1 6.8203 1 14C1 21.1798 6.8203 27 14 27Z" stroke="white" stroke-width="1.75" stroke-linecap="round" stroke-linejoin="round"/>
<path id="Vector_2" d="M14 9V14L19.08 19.92" stroke="white" stroke-width="1.75" stroke-linecap="round" stroke-linejoin="round"/>
</g>
</g>
</g>
</g>
</g>
</g>
</g>
</g>
</g>
<defs>
<filter id="filter0_f_693_20092" x="-640" y="-993" width="1174" height="1166" filterUnits="userSpaceOnUse" color-interpolation-filters="sRGB">
<feFlood flood-opacity="0" result="BackgroundImageFix"/>
<feBlend mode="normal" in="SourceGraphic" in2="BackgroundImageFix" result="shape"/>
<feGaussianBlur stdDeviation="117" result="effect1_foregroundBlur_693_20092"/>
</filter>
<filter id="filter1_f_693_20092" x="-871" y="-569" width="1216" height="1209" filterUnits="userSpaceOnUse" color-interpolation-filters="sRGB">
<feFlood flood-opacity="0" result="BackgroundImageFix"/>
<feBlend mode="normal" in="SourceGraphic" in2="BackgroundImageFix" result="shape"/>
<feGaussianBlur stdDeviation="157" result="effect1_foregroundBlur_693_20092"/>
</filter>
<filter id="filter2_f_693_20092" x="-544" y="-594" width="788" height="781" filterUnits="userSpaceOnUse" color-interpolation-filters="sRGB">
<feFlood flood-opacity="0" result="BackgroundImageFix"/>
<feBlend mode="normal" in="SourceGraphic" in2="BackgroundImageFix" result="shape"/>
<feGaussianBlur stdDeviation="76.5" result="effect1_foregroundBlur_693_20092"/>
</filter>
<filter id="filter3_b_693_20092" x="-428.023" y="-91.0233" width="554.047" height="258.047" filterUnits="userSpaceOnUse" color-interpolation-filters="sRGB">
<feFlood flood-opacity="0" result="BackgroundImageFix"/>
<feGaussianBlur in="BackgroundImageFix" stdDeviation="41.0117"/>
<feComposite in2="SourceAlpha" operator="in" result="effect1_backgroundBlur_693_20092"/>
<feBlend mode="normal" in="SourceGraphic" in2="effect1_backgroundBlur_693_20092" result="shape"/>
</filter>
<clipPath id="clip0_693_20092">
<rect width="390" height="844" fill="white" transform="translate(-346 -759)"/>
</clipPath>
<clipPath id="clip1_693_20092">
<rect width="390" height="844" fill="white" transform="translate(-346 -759)"/>
</clipPath>
<clipPath id="clip2_693_20092">
<path d="M-346 7C-346 -1.83656 -338.837 -9 -330 -9H28C36.8365 -9 44 -1.83656 44 7V85H-346V7Z" fill="white"/>
</clipPath>
<clipPath id="clip3_693_20092">
<rect width="28" height="28" fill="white"/>
</clipPath>
</defs>
</svg>
