<svg width="16" height="16" viewBox="0 0 16 16" fill="none" xmlns="http://www.w3.org/2000/svg">
<g id="Favorite Heart">
<path id="Vector" d="M8.00002 4.40084L8.81922 3.46324C9.3214 2.78331 10.0484 2.30344 10.871 2.10892C11.6936 1.91441 12.5585 2.01784 13.312 2.40084C13.8878 2.71814 14.3671 3.18504 14.6994 3.75225C15.0318 4.31945 15.2047 4.96588 15.2 5.62324C15.2004 6.15913 15.0838 6.68863 14.8583 7.17476C14.6328 7.66088 14.3038 8.09188 13.8944 8.43764L8.39682 13.8328C8.34526 13.8871 8.28321 13.9302 8.21445 13.9597C8.14568 13.9892 8.07164 14.0044 7.99682 14.0044C7.922 14.0044 7.84795 13.9892 7.77919 13.9597C7.71043 13.9302 7.64838 13.8871 7.59682 13.8328L2.10562 8.43764C1.69621 8.09188 1.36725 7.66088 1.14173 7.17476C0.916222 6.68863 0.7996 6.15913 0.80002 5.62324C0.795328 4.96588 0.968279 4.31945 1.3006 3.75225C1.63292 3.18504 2.11228 2.71814 2.68802 2.40084C3.44102 2.01734 4.30557 1.91315 5.12812 2.10678C5.95067 2.30041 6.67796 2.77932 7.18082 3.45844L8.00002 4.40084Z" fill="#FF7D7D"/>
</g>
</svg>
