<svg width="24" height="24" viewBox="0 0 24 24" fill="none" xmlns="http://www.w3.org/2000/svg">
<circle cx="12" cy="12" r="12" fill="white"/>
<path d="M12 6.39999C11.7878 6.39999 11.5843 6.3157 11.4343 6.16567C11.2842 6.01564 11.2 5.81216 11.2 5.59999C11.2 5.38781 11.2842 5.18433 11.4343 5.0343C11.5843 4.88427 11.7878 4.79999 12 4.79999" stroke="black" stroke-linecap="round" stroke-linejoin="round"/>
<path d="M12 6.39999C12.2122 6.39999 12.4157 6.3157 12.5657 6.16567C12.7157 6.01564 12.8 5.81216 12.8 5.59999C12.8 5.38781 12.7157 5.18433 12.5657 5.0343C12.4157 4.88427 12.2122 4.79999 12 4.79999" stroke="black" stroke-linecap="round" stroke-linejoin="round"/>
<path d="M12 19.2C11.7878 19.2 11.5843 19.1157 11.4343 18.9657C11.2842 18.8156 11.2 18.6121 11.2 18.4C11.2 18.1878 11.2842 17.9843 11.4343 17.8343C11.5843 17.6843 11.7878 17.6 12 17.6" stroke="black" stroke-linecap="round" stroke-linejoin="round"/>
<path d="M12 19.2C12.2122 19.2 12.4157 19.1157 12.5657 18.9657C12.7157 18.8156 12.8 18.6121 12.8 18.4C12.8 18.1878 12.7157 17.9843 12.5657 17.8343C12.4157 17.6843 12.2122 17.6 12 17.6" stroke="black" stroke-linecap="round" stroke-linejoin="round"/>
<path d="M12 12.8C11.7878 12.8 11.5843 12.7157 11.4343 12.5657C11.2842 12.4157 11.2 12.2122 11.2 12C11.2 11.7878 11.2842 11.5844 11.4343 11.4343C11.5843 11.2843 11.7878 11.2 12 11.2" stroke="black" stroke-linecap="round" stroke-linejoin="round"/>
<path d="M12 12.8C12.2122 12.8 12.4157 12.7157 12.5657 12.5657C12.7157 12.4157 12.8 12.2122 12.8 12C12.8 11.7878 12.7157 11.5844 12.5657 11.4343C12.4157 11.2843 12.2122 11.2 12 11.2" stroke="black" stroke-linecap="round" stroke-linejoin="round"/>
</svg>
