<svg width="358" height="227" viewBox="0 0 358 227" fill="none" xmlns="http://www.w3.org/2000/svg">
<path d="M222.529 30.8291C222.529 39.0055 217.798 46.847 209.377 52.6286C200.956 58.4102 189.535 61.6582 177.626 61.6582C165.717 61.6582 154.296 58.4102 145.875 52.6286C137.454 46.847 132.723 39.0055 132.723 30.8291L177.626 30.8291L222.529 30.8291Z" fill="white"/>
<path d="M122.433 30.8291C125.474 87.7269 234.457 81.8331 232.119 30.8291H259.014C259.014 100.875 114.482 125.81 96.0059 30.8291H122.433Z" fill="#4A81DC"/>
<path d="M186.981 98.8341C226.506 96.3406 262.762 71.314 267.943 30.6348H339.445C334.782 51.2255 321.311 154.179 193.332 165.73L186.981 98.8341Z" fill="#C1D8FF"/>
<path d="M169.631 98.8341C130.107 96.3406 93.8506 71.314 88.6693 30.6348H17.167C21.8302 51.2255 35.3016 154.179 163.28 165.73L169.631 98.8341Z" fill="#C1D8FF"/>
<path d="M358 31.1372H348.721C334.592 145.642 241.076 171.254 194.886 175.272L202.001 227H358V31.1372Z" fill="#F4F3FF"/>
<path d="M0.000106812 31.1372H7.8911C22.0197 145.642 116.573 170.752 162.762 174.77L156.026 227H0.000106812V31.1372Z" fill="#F4F3FF"/>
<path d="M145.154 74.878V85H143.782V74.878H145.154ZM147.758 80.534H144.776V79.344H147.646C148.215 79.344 148.654 79.1993 148.962 78.91C149.27 78.6207 149.424 78.21 149.424 77.678C149.424 77.174 149.261 76.7867 148.934 76.516C148.617 76.236 148.159 76.096 147.562 76.096H144.538V74.878H147.646C148.635 74.878 149.41 75.116 149.97 75.592C150.539 76.068 150.824 76.7213 150.824 77.552C150.824 78.1773 150.67 78.7 150.362 79.12C150.063 79.5307 149.62 79.8293 149.032 80.016V79.834C149.685 79.9927 150.175 80.282 150.502 80.702C150.838 81.1127 151.006 81.6447 151.006 82.298C151.006 82.858 150.875 83.3433 150.614 83.754C150.362 84.1553 149.993 84.4633 149.508 84.678C149.023 84.8927 148.449 85 147.786 85H144.538V83.782H147.758C148.346 83.782 148.799 83.6373 149.116 83.348C149.433 83.0587 149.592 82.6527 149.592 82.13C149.592 81.626 149.429 81.234 149.102 80.954C148.785 80.674 148.337 80.534 147.758 80.534ZM154.501 85.168C153.773 85.168 153.199 84.9767 152.779 84.594C152.369 84.2113 152.163 83.712 152.163 83.096C152.163 82.4707 152.387 81.9713 152.835 81.598C153.283 81.2153 153.909 80.9913 154.711 80.926L156.867 80.758V80.562C156.867 80.1793 156.797 79.876 156.657 79.652C156.517 79.4187 156.326 79.2553 156.083 79.162C155.841 79.0593 155.565 79.008 155.257 79.008C154.707 79.008 154.277 79.1247 153.969 79.358C153.671 79.582 153.521 79.904 153.521 80.324H152.373C152.373 79.848 152.495 79.4327 152.737 79.078C152.98 78.7233 153.321 78.448 153.759 78.252C154.207 78.056 154.725 77.958 155.313 77.958C155.883 77.958 156.377 78.0607 156.797 78.266C157.227 78.462 157.558 78.7653 157.791 79.176C158.034 79.5773 158.155 80.086 158.155 80.702V85H157.035L156.895 83.894C156.718 84.286 156.41 84.5987 155.971 84.832C155.542 85.056 155.052 85.168 154.501 85.168ZM154.879 84.146C155.505 84.146 155.995 83.9593 156.349 83.586C156.704 83.2033 156.881 82.69 156.881 82.046V81.682L155.131 81.822C154.553 81.878 154.133 82.0133 153.871 82.228C153.619 82.4427 153.493 82.718 153.493 83.054C153.493 83.418 153.615 83.6933 153.857 83.88C154.109 84.0573 154.45 84.146 154.879 84.146ZM159.53 81.584C159.53 80.8653 159.67 80.2353 159.95 79.694C160.239 79.1527 160.636 78.728 161.14 78.42C161.644 78.112 162.227 77.958 162.89 77.958C163.749 77.958 164.463 78.1867 165.032 78.644C165.601 79.1013 165.942 79.708 166.054 80.464H164.738C164.626 80.0253 164.407 79.694 164.08 79.47C163.753 79.246 163.371 79.134 162.932 79.134C162.521 79.134 162.157 79.2367 161.84 79.442C161.523 79.638 161.275 79.918 161.098 80.282C160.921 80.646 160.832 81.0753 160.832 81.57C160.832 82.0647 160.916 82.494 161.084 82.858C161.252 83.2127 161.49 83.4927 161.798 83.698C162.106 83.894 162.465 83.992 162.876 83.992C163.343 83.992 163.744 83.8753 164.08 83.642C164.416 83.4087 164.64 83.0913 164.752 82.69H166.068C165.984 83.1847 165.793 83.6187 165.494 83.992C165.205 84.356 164.831 84.6453 164.374 84.86C163.926 85.0653 163.427 85.168 162.876 85.168C162.204 85.168 161.616 85.0187 161.112 84.72C160.617 84.4213 160.23 84.006 159.95 83.474C159.67 82.9327 159.53 82.3027 159.53 81.584ZM168.8 85H167.484V74.696H168.8V81.374L171.838 78.154H173.49L170.872 80.884L173.476 85H171.964L169.962 81.836L168.8 83.054V85ZM178.03 77.608C178.03 77.0293 178.175 76.5207 178.464 76.082C178.753 75.6433 179.159 75.3027 179.682 75.06C180.214 74.8173 180.825 74.696 181.516 74.696C182.16 74.696 182.72 74.8127 183.196 75.046C183.681 75.27 184.059 75.592 184.33 76.012C184.61 76.432 184.769 76.936 184.806 77.524H183.42C183.383 77.02 183.196 76.628 182.86 76.348C182.524 76.068 182.071 75.928 181.502 75.928C180.867 75.928 180.359 76.0773 179.976 76.376C179.593 76.6653 179.402 77.062 179.402 77.566C179.402 77.9767 179.519 78.308 179.752 78.56C179.985 78.8027 180.34 78.98 180.816 79.092L182.482 79.484C183.313 79.6707 183.933 79.9927 184.344 80.45C184.764 80.898 184.974 81.4767 184.974 82.186C184.974 82.7927 184.825 83.32 184.526 83.768C184.237 84.216 183.821 84.5613 183.28 84.804C182.748 85.0467 182.123 85.168 181.404 85.168C180.723 85.168 180.121 85.056 179.598 84.832C179.085 84.5987 178.679 84.272 178.38 83.852C178.091 83.4227 177.927 82.9233 177.89 82.354H179.29C179.299 82.8393 179.495 83.2267 179.878 83.516C180.261 83.796 180.769 83.936 181.404 83.936C182.076 83.936 182.608 83.7867 183 83.488C183.401 83.1893 183.602 82.7927 183.602 82.298C183.602 81.8967 183.49 81.57 183.266 81.318C183.042 81.066 182.687 80.884 182.202 80.772L180.536 80.394C179.715 80.2073 179.089 79.8807 178.66 79.414C178.24 78.938 178.03 78.336 178.03 77.608ZM185.746 78.154H189.75V79.26H185.746V78.154ZM188.406 85H187.09V76.012H188.406V85ZM192.851 85.168C192.123 85.168 191.549 84.9767 191.129 84.594C190.718 84.2113 190.513 83.712 190.513 83.096C190.513 82.4707 190.737 81.9713 191.185 81.598C191.633 81.2153 192.258 80.9913 193.061 80.926L195.217 80.758V80.562C195.217 80.1793 195.147 79.876 195.007 79.652C194.867 79.4187 194.676 79.2553 194.433 79.162C194.19 79.0593 193.915 79.008 193.607 79.008C193.056 79.008 192.627 79.1247 192.319 79.358C192.02 79.582 191.871 79.904 191.871 80.324H190.723C190.723 79.848 190.844 79.4327 191.087 79.078C191.33 78.7233 191.67 78.448 192.109 78.252C192.557 78.056 193.075 77.958 193.663 77.958C194.232 77.958 194.727 78.0607 195.147 78.266C195.576 78.462 195.908 78.7653 196.141 79.176C196.384 79.5773 196.505 80.086 196.505 80.702V85H195.385L195.245 83.894C195.068 84.286 194.76 84.5987 194.321 84.832C193.892 85.056 193.402 85.168 192.851 85.168ZM193.229 84.146C193.854 84.146 194.344 83.9593 194.699 83.586C195.054 83.2033 195.231 82.69 195.231 82.046V81.682L193.481 81.822C192.902 81.878 192.482 82.0133 192.221 82.228C191.969 82.4427 191.843 82.718 191.843 83.054C191.843 83.418 191.964 83.6933 192.207 83.88C192.459 84.0573 192.8 84.146 193.229 84.146ZM197.894 81.402C197.894 80.758 198.024 80.1793 198.286 79.666C198.547 79.1433 198.92 78.728 199.406 78.42C199.891 78.112 200.465 77.958 201.128 77.958C201.744 77.958 202.271 78.1073 202.71 78.406C203.148 78.6953 203.461 79.1013 203.648 79.624L203.48 79.806L203.62 78.154H204.796V84.72C204.796 85.4387 204.656 86.0593 204.376 86.582C204.096 87.114 203.699 87.5247 203.186 87.814C202.672 88.1033 202.066 88.248 201.366 88.248C200.432 88.248 199.667 88.0007 199.07 87.506C198.472 87.0113 198.108 86.33 197.978 85.462H199.294C199.378 85.966 199.602 86.358 199.966 86.638C200.33 86.918 200.796 87.058 201.366 87.058C202.01 87.058 202.523 86.862 202.906 86.47C203.298 86.0873 203.494 85.5693 203.494 84.916V82.984L203.662 83.166C203.484 83.6793 203.162 84.0853 202.696 84.384C202.229 84.6733 201.688 84.818 201.072 84.818C200.418 84.818 199.854 84.6687 199.378 84.37C198.902 84.062 198.533 83.6513 198.272 83.138C198.02 82.6247 197.894 82.046 197.894 81.402ZM199.21 81.374C199.21 81.8033 199.294 82.1907 199.462 82.536C199.639 82.8813 199.882 83.1567 200.19 83.362C200.507 83.5673 200.876 83.67 201.296 83.67C201.744 83.67 202.126 83.572 202.444 83.376C202.761 83.18 203.004 82.9093 203.172 82.564C203.349 82.2187 203.438 81.822 203.438 81.374C203.438 80.926 203.354 80.534 203.186 80.198C203.018 79.862 202.775 79.596 202.458 79.4C202.14 79.204 201.758 79.106 201.31 79.106C200.871 79.106 200.493 79.2087 200.176 79.414C199.868 79.6193 199.63 79.8947 199.462 80.24C199.294 80.576 199.21 80.954 199.21 81.374ZM209.649 85.168C208.986 85.168 208.398 85.0187 207.885 84.72C207.371 84.412 206.97 83.992 206.681 83.46C206.391 82.9187 206.247 82.2933 206.247 81.584C206.247 80.8653 206.387 80.2353 206.667 79.694C206.956 79.1527 207.348 78.728 207.843 78.42C208.347 78.112 208.93 77.958 209.593 77.958C210.246 77.958 210.811 78.098 211.287 78.378C211.772 78.658 212.145 79.05 212.407 79.554C212.677 80.058 212.813 80.6507 212.813 81.332V81.822L206.947 81.836L206.975 80.954H211.497C211.497 80.3847 211.324 79.9273 210.979 79.582C210.633 79.2367 210.171 79.064 209.593 79.064C209.154 79.064 208.776 79.162 208.459 79.358C208.151 79.5447 207.913 79.8247 207.745 80.198C207.586 80.562 207.507 81.0007 207.507 81.514C207.507 82.3353 207.693 82.97 208.067 83.418C208.44 83.8567 208.977 84.076 209.677 84.076C210.19 84.076 210.61 83.9733 210.937 83.768C211.263 83.5627 211.483 83.264 211.595 82.872H212.827C212.659 83.6 212.299 84.1647 211.749 84.566C211.198 84.9673 210.498 85.168 209.649 85.168Z" fill="white"/>
<path d="M97.2792 120.465L93.4292 110.343H94.8992L97.3632 116.811C97.4752 117.091 97.5826 117.385 97.6852 117.693C97.7879 117.992 97.8906 118.332 97.9932 118.715C98.1146 118.314 98.2312 117.95 98.3432 117.623C98.4552 117.296 98.5532 117.021 98.6372 116.797L101.087 110.343H102.515L98.7072 120.465H97.2792ZM105.202 110.343V120.465H103.83V110.343H105.202ZM108.935 110.343V120.465H107.563V110.343H108.935ZM111.497 116.853H108.627V115.621H111.203C111.884 115.621 112.407 115.439 112.771 115.075C113.135 114.702 113.317 114.202 113.317 113.577C113.317 112.942 113.135 112.452 112.771 112.107C112.407 111.752 111.903 111.575 111.259 111.575H108.319V110.343H111.497C112.16 110.343 112.734 110.478 113.219 110.749C113.704 111.02 114.082 111.398 114.353 111.883C114.624 112.368 114.759 112.938 114.759 113.591C114.759 114.216 114.624 114.776 114.353 115.271C114.082 115.766 113.704 116.153 113.219 116.433C112.734 116.713 112.16 116.853 111.497 116.853Z" fill="black"/>
<path d="M244.429 120.465L240.579 110.343H242.049L244.513 116.811C244.625 117.091 244.732 117.385 244.835 117.693C244.938 117.992 245.04 118.332 245.143 118.715C245.264 118.314 245.381 117.95 245.493 117.623C245.605 117.296 245.703 117.021 245.787 116.797L248.237 110.343H249.665L245.857 120.465H244.429ZM252.352 110.343V120.465H250.98V110.343H252.352ZM256.085 110.343V120.465H254.713V110.343H256.085ZM258.647 116.853H255.777V115.621H258.353C259.034 115.621 259.557 115.439 259.921 115.075C260.285 114.702 260.467 114.202 260.467 113.577C260.467 112.942 260.285 112.452 259.921 112.107C259.557 111.752 259.053 111.575 258.409 111.575H255.469V110.343H258.647C259.309 110.343 259.883 110.478 260.369 110.749C260.854 111.02 261.232 111.398 261.503 111.883C261.773 112.368 261.909 112.938 261.909 113.591C261.909 114.216 261.773 114.776 261.503 115.271C261.232 115.766 260.854 116.153 260.369 116.433C259.883 116.713 259.309 116.853 258.647 116.853Z" fill="black"/>
<path d="M35.2013 181.772C34.4733 181.772 33.848 181.94 33.3253 182.276C32.8026 182.612 32.4013 183.079 32.1213 183.676C31.8413 184.274 31.7013 184.974 31.7013 185.776C31.7013 186.588 31.846 187.284 32.1353 187.862C32.434 188.441 32.8493 188.884 33.3813 189.192C33.9133 189.491 34.5246 189.64 35.2153 189.64C35.654 189.64 36.06 189.584 36.4333 189.472C36.8066 189.36 37.1333 189.188 37.4133 188.954C37.6933 188.712 37.9126 188.404 38.0713 188.03C38.2393 187.657 38.3233 187.218 38.3233 186.714V185.762L38.9673 186.42H34.9353V185.202H39.6113V190.788H38.4633L38.3233 188.912L38.5053 189.136C38.356 189.472 38.118 189.776 37.7913 190.046C37.4646 190.317 37.0726 190.536 36.6153 190.704C36.158 190.863 35.654 190.942 35.1033 190.942C34.1513 190.942 33.3113 190.728 32.5833 190.298C31.8553 189.86 31.286 189.253 30.8753 188.478C30.4646 187.704 30.2593 186.794 30.2593 185.748C30.2593 184.722 30.4646 183.812 30.8753 183.018C31.2953 182.225 31.8786 181.604 32.6253 181.156C33.372 180.708 34.24 180.484 35.2293 180.484C35.9666 180.484 36.6386 180.62 37.2453 180.89C37.852 181.152 38.3513 181.525 38.7433 182.01C39.1446 182.486 39.3966 183.051 39.4993 183.704H38.0433C37.8566 183.06 37.502 182.58 36.9793 182.262C36.466 181.936 35.8733 181.772 35.2013 181.772ZM44.2964 190.942C43.6337 190.942 43.0457 190.793 42.5324 190.494C42.019 190.186 41.6177 189.766 41.3284 189.234C41.039 188.693 40.8944 188.068 40.8944 187.358C40.8944 186.64 41.0344 186.01 41.3144 185.468C41.6037 184.927 41.9957 184.502 42.4904 184.194C42.9944 183.886 43.5777 183.732 44.2404 183.732C44.8937 183.732 45.4584 183.872 45.9344 184.152C46.4197 184.432 46.793 184.824 47.0544 185.328C47.325 185.832 47.4604 186.425 47.4604 187.106V187.596L41.5944 187.61L41.6224 186.728H46.1444C46.1444 186.159 45.9717 185.702 45.6264 185.356C45.281 185.011 44.819 184.838 44.2404 184.838C43.8017 184.838 43.4237 184.936 43.1064 185.132C42.7984 185.319 42.5604 185.599 42.3924 185.972C42.2337 186.336 42.1544 186.775 42.1544 187.288C42.1544 188.11 42.341 188.744 42.7144 189.192C43.0877 189.631 43.6244 189.85 44.3244 189.85C44.8377 189.85 45.2577 189.748 45.5844 189.542C45.911 189.337 46.1304 189.038 46.2424 188.646H47.4744C47.3064 189.374 46.947 189.939 46.3964 190.34C45.8457 190.742 45.1457 190.942 44.2964 190.942ZM50.2463 190.774H48.9303V183.928H50.1203L50.2603 184.978C50.4749 184.586 50.7829 184.283 51.1843 184.068C51.5949 183.844 52.0429 183.732 52.5283 183.732C53.4243 183.732 54.0869 183.989 54.5163 184.502C54.9456 185.016 55.1603 185.711 55.1603 186.588V190.774H53.8443V186.882C53.8443 186.192 53.6949 185.697 53.3963 185.398C53.0976 185.09 52.6963 184.936 52.1923 184.936C51.5763 184.936 51.0956 185.137 50.7503 185.538C50.4143 185.94 50.2463 186.476 50.2463 187.148V190.774ZM59.937 190.942C59.2743 190.942 58.6863 190.793 58.173 190.494C57.6597 190.186 57.2583 189.766 56.969 189.234C56.6797 188.693 56.535 188.068 56.535 187.358C56.535 186.64 56.675 186.01 56.955 185.468C57.2443 184.927 57.6363 184.502 58.131 184.194C58.635 183.886 59.2183 183.732 59.881 183.732C60.5343 183.732 61.099 183.872 61.575 184.152C62.0603 184.432 62.4337 184.824 62.695 185.328C62.9657 185.832 63.101 186.425 63.101 187.106V187.596L57.235 187.61L57.263 186.728H61.785C61.785 186.159 61.6123 185.702 61.267 185.356C60.9217 185.011 60.4597 184.838 59.881 184.838C59.4423 184.838 59.0643 184.936 58.747 185.132C58.439 185.319 58.201 185.599 58.033 185.972C57.8743 186.336 57.795 186.775 57.795 187.288C57.795 188.11 57.9817 188.744 58.355 189.192C58.7283 189.631 59.265 189.85 59.965 189.85C60.4783 189.85 60.8983 189.748 61.225 189.542C61.5517 189.337 61.771 189.038 61.883 188.646H63.115C62.947 189.374 62.5877 189.939 62.037 190.34C61.4863 190.742 60.7863 190.942 59.937 190.942ZM68.4909 183.872V185.076H67.9029C67.2775 185.076 66.7829 185.258 66.4189 185.622C66.0642 185.977 65.8869 186.486 65.8869 187.148V190.774H64.5709V183.942H65.8029L65.9149 185.314H65.7889C65.8822 184.866 66.1062 184.502 66.4609 184.222C66.8155 183.933 67.2589 183.788 67.7909 183.788C67.9122 183.788 68.0242 183.798 68.1269 183.816C68.2389 183.826 68.3602 183.844 68.4909 183.872ZM71.4537 190.942C70.7257 190.942 70.1517 190.751 69.7317 190.368C69.3211 189.986 69.1157 189.486 69.1157 188.87C69.1157 188.245 69.3397 187.746 69.7877 187.372C70.2357 186.99 70.8611 186.766 71.6637 186.7L73.8197 186.532V186.336C73.8197 185.954 73.7497 185.65 73.6097 185.426C73.4697 185.193 73.2784 185.03 73.0357 184.936C72.7931 184.834 72.5177 184.782 72.2097 184.782C71.6591 184.782 71.2297 184.899 70.9217 185.132C70.6231 185.356 70.4737 185.678 70.4737 186.098H69.3257C69.3257 185.622 69.4471 185.207 69.6897 184.852C69.9324 184.498 70.2731 184.222 70.7117 184.026C71.1597 183.83 71.6777 183.732 72.2657 183.732C72.8351 183.732 73.3297 183.835 73.7497 184.04C74.1791 184.236 74.5104 184.54 74.7437 184.95C74.9864 185.352 75.1077 185.86 75.1077 186.476V190.774H73.9877L73.8477 189.668C73.6704 190.06 73.3624 190.373 72.9237 190.606C72.4944 190.83 72.0044 190.942 71.4537 190.942ZM71.8317 189.92C72.4571 189.92 72.9471 189.734 73.3017 189.36C73.6564 188.978 73.8337 188.464 73.8337 187.82V187.456L72.0837 187.596C71.5051 187.652 71.0851 187.788 70.8237 188.002C70.5717 188.217 70.4457 188.492 70.4457 188.828C70.4457 189.192 70.5671 189.468 70.8097 189.654C71.0617 189.832 71.4024 189.92 71.8317 189.92ZM78.2743 190.774H76.9583V180.47H78.2743V190.774Z" fill="#616161"/>
<path d="M276.651 181.772C275.923 181.772 275.298 181.94 274.775 182.276C274.252 182.612 273.851 183.079 273.571 183.676C273.291 184.274 273.151 184.974 273.151 185.776C273.151 186.588 273.296 187.284 273.585 187.862C273.884 188.441 274.299 188.884 274.831 189.192C275.363 189.491 275.974 189.64 276.665 189.64C277.104 189.64 277.51 189.584 277.883 189.472C278.256 189.36 278.583 189.188 278.863 188.954C279.143 188.712 279.362 188.404 279.521 188.03C279.689 187.657 279.773 187.218 279.773 186.714V185.762L280.417 186.42H276.385V185.202H281.061V190.788H279.913L279.773 188.912L279.955 189.136C279.806 189.472 279.568 189.776 279.241 190.046C278.914 190.317 278.522 190.536 278.065 190.704C277.608 190.863 277.104 190.942 276.553 190.942C275.601 190.942 274.761 190.728 274.033 190.298C273.305 189.86 272.736 189.253 272.325 188.478C271.914 187.704 271.709 186.794 271.709 185.748C271.709 184.722 271.914 183.812 272.325 183.018C272.745 182.225 273.328 181.604 274.075 181.156C274.822 180.708 275.69 180.484 276.679 180.484C277.416 180.484 278.088 180.62 278.695 180.89C279.302 181.152 279.801 181.525 280.193 182.01C280.594 182.486 280.846 183.051 280.949 183.704H279.493C279.306 183.06 278.952 182.58 278.429 182.262C277.916 181.936 277.323 181.772 276.651 181.772ZM285.746 190.942C285.083 190.942 284.495 190.793 283.982 190.494C283.469 190.186 283.067 189.766 282.778 189.234C282.489 188.693 282.344 188.068 282.344 187.358C282.344 186.64 282.484 186.01 282.764 185.468C283.053 184.927 283.445 184.502 283.94 184.194C284.444 183.886 285.027 183.732 285.69 183.732C286.343 183.732 286.908 183.872 287.384 184.152C287.869 184.432 288.243 184.824 288.504 185.328C288.775 185.832 288.91 186.425 288.91 187.106V187.596L283.044 187.61L283.072 186.728H287.594C287.594 186.159 287.421 185.702 287.076 185.356C286.731 185.011 286.269 184.838 285.69 184.838C285.251 184.838 284.873 184.936 284.556 185.132C284.248 185.319 284.01 185.599 283.842 185.972C283.683 186.336 283.604 186.775 283.604 187.288C283.604 188.11 283.791 188.744 284.164 189.192C284.537 189.631 285.074 189.85 285.774 189.85C286.287 189.85 286.707 189.748 287.034 189.542C287.361 189.337 287.58 189.038 287.692 188.646H288.924C288.756 189.374 288.397 189.939 287.846 190.34C287.295 190.742 286.595 190.942 285.746 190.942ZM291.696 190.774H290.38V183.928H291.57L291.71 184.978C291.925 184.586 292.233 184.283 292.634 184.068C293.045 183.844 293.493 183.732 293.978 183.732C294.874 183.732 295.537 183.989 295.966 184.502C296.395 185.016 296.61 185.711 296.61 186.588V190.774H295.294V186.882C295.294 186.192 295.145 185.697 294.846 185.398C294.547 185.09 294.146 184.936 293.642 184.936C293.026 184.936 292.545 185.137 292.2 185.538C291.864 185.94 291.696 186.476 291.696 187.148V190.774ZM301.387 190.942C300.724 190.942 300.136 190.793 299.623 190.494C299.109 190.186 298.708 189.766 298.419 189.234C298.129 188.693 297.985 188.068 297.985 187.358C297.985 186.64 298.125 186.01 298.405 185.468C298.694 184.927 299.086 184.502 299.581 184.194C300.085 183.886 300.668 183.732 301.331 183.732C301.984 183.732 302.549 183.872 303.025 184.152C303.51 184.432 303.883 184.824 304.145 185.328C304.415 185.832 304.551 186.425 304.551 187.106V187.596L298.685 187.61L298.713 186.728H303.235C303.235 186.159 303.062 185.702 302.717 185.356C302.371 185.011 301.909 184.838 301.331 184.838C300.892 184.838 300.514 184.936 300.197 185.132C299.889 185.319 299.651 185.599 299.483 185.972C299.324 186.336 299.245 186.775 299.245 187.288C299.245 188.11 299.431 188.744 299.805 189.192C300.178 189.631 300.715 189.85 301.415 189.85C301.928 189.85 302.348 189.748 302.675 189.542C303.001 189.337 303.221 189.038 303.333 188.646H304.565C304.397 189.374 304.037 189.939 303.487 190.34C302.936 190.742 302.236 190.942 301.387 190.942ZM309.941 183.872V185.076H309.353C308.727 185.076 308.233 185.258 307.869 185.622C307.514 185.977 307.337 186.486 307.337 187.148V190.774H306.021V183.942H307.253L307.365 185.314H307.239C307.332 184.866 307.556 184.502 307.911 184.222C308.265 183.933 308.709 183.788 309.241 183.788C309.362 183.788 309.474 183.798 309.577 183.816C309.689 183.826 309.81 183.844 309.941 183.872ZM312.903 190.942C312.175 190.942 311.601 190.751 311.181 190.368C310.771 189.986 310.565 189.486 310.565 188.87C310.565 188.245 310.789 187.746 311.237 187.372C311.685 186.99 312.311 186.766 313.113 186.7L315.269 186.532V186.336C315.269 185.954 315.199 185.65 315.059 185.426C314.919 185.193 314.728 185.03 314.485 184.936C314.243 184.834 313.967 184.782 313.659 184.782C313.109 184.782 312.679 184.899 312.371 185.132C312.073 185.356 311.923 185.678 311.923 186.098H310.775C310.775 185.622 310.897 185.207 311.139 184.852C311.382 184.498 311.723 184.222 312.161 184.026C312.609 183.83 313.127 183.732 313.715 183.732C314.285 183.732 314.779 183.835 315.199 184.04C315.629 184.236 315.96 184.54 316.193 184.95C316.436 185.352 316.557 185.86 316.557 186.476V190.774H315.437L315.297 189.668C315.12 190.06 314.812 190.373 314.373 190.606C313.944 190.83 313.454 190.942 312.903 190.942ZM313.281 189.92C313.907 189.92 314.397 189.734 314.751 189.36C315.106 188.978 315.283 188.464 315.283 187.82V187.456L313.533 187.596C312.955 187.652 312.535 187.788 312.273 188.002C312.021 188.217 311.895 188.492 311.895 188.828C311.895 189.192 312.017 189.468 312.259 189.654C312.511 189.832 312.852 189.92 313.281 189.92ZM319.724 190.774H318.408V180.47H319.724V190.774Z" fill="#616161"/>
<path d="M162.16 43.608C162.16 43.0293 162.304 42.5207 162.594 42.082C162.883 41.6433 163.289 41.3027 163.812 41.06C164.344 40.8173 164.955 40.696 165.646 40.696C166.29 40.696 166.85 40.8127 167.326 41.046C167.811 41.27 168.189 41.592 168.46 42.012C168.74 42.432 168.898 42.936 168.936 43.524H167.55C167.512 43.02 167.326 42.628 166.99 42.348C166.654 42.068 166.201 41.928 165.632 41.928C164.997 41.928 164.488 42.0773 164.106 42.376C163.723 42.6653 163.532 43.062 163.532 43.566C163.532 43.9767 163.648 44.308 163.882 44.56C164.115 44.8027 164.47 44.98 164.946 45.092L166.612 45.484C167.442 45.6707 168.063 45.9927 168.474 46.45C168.894 46.898 169.104 47.4767 169.104 48.186C169.104 48.7927 168.954 49.32 168.656 49.768C168.366 50.216 167.951 50.5613 167.41 50.804C166.878 51.0467 166.252 51.168 165.534 51.168C164.852 51.168 164.25 51.056 163.728 50.832C163.214 50.5987 162.808 50.272 162.51 49.852C162.22 49.4227 162.057 48.9233 162.02 48.354H163.42C163.429 48.8393 163.625 49.2267 164.008 49.516C164.39 49.796 164.899 49.936 165.534 49.936C166.206 49.936 166.738 49.7867 167.13 49.488C167.531 49.1893 167.732 48.7927 167.732 48.298C167.732 47.8967 167.62 47.57 167.396 47.318C167.172 47.066 166.817 46.884 166.332 46.772L164.666 46.394C163.844 46.2073 163.219 45.8807 162.79 45.414C162.37 44.938 162.16 44.336 162.16 43.608ZM169.876 44.154H173.88V45.26H169.876V44.154ZM172.536 51H171.22V42.012H172.536V51ZM176.981 51.168C176.253 51.168 175.679 50.9767 175.259 50.594C174.848 50.2113 174.643 49.712 174.643 49.096C174.643 48.4707 174.867 47.9713 175.315 47.598C175.763 47.2153 176.388 46.9913 177.191 46.926L179.347 46.758V46.562C179.347 46.1793 179.277 45.876 179.137 45.652C178.997 45.4187 178.805 45.2553 178.563 45.162C178.32 45.0593 178.045 45.008 177.737 45.008C177.186 45.008 176.757 45.1247 176.449 45.358C176.15 45.582 176.001 45.904 176.001 46.324H174.853C174.853 45.848 174.974 45.4327 175.217 45.078C175.459 44.7233 175.8 44.448 176.239 44.252C176.687 44.056 177.205 43.958 177.793 43.958C178.362 43.958 178.857 44.0607 179.277 44.266C179.706 44.462 180.037 44.7653 180.271 45.176C180.513 45.5773 180.635 46.086 180.635 46.702V51H179.515L179.375 49.894C179.197 50.286 178.889 50.5987 178.451 50.832C178.021 51.056 177.531 51.168 176.981 51.168ZM177.359 50.146C177.984 50.146 178.474 49.9593 178.829 49.586C179.183 49.2033 179.361 48.69 179.361 48.046V47.682L177.611 47.822C177.032 47.878 176.612 48.0133 176.351 48.228C176.099 48.4427 175.973 48.718 175.973 49.054C175.973 49.418 176.094 49.6933 176.337 49.88C176.589 50.0573 176.929 50.146 177.359 50.146ZM182.023 47.402C182.023 46.758 182.154 46.1793 182.415 45.666C182.677 45.1433 183.05 44.728 183.535 44.42C184.021 44.112 184.595 43.958 185.257 43.958C185.873 43.958 186.401 44.1073 186.839 44.406C187.278 44.6953 187.591 45.1013 187.777 45.624L187.609 45.806L187.749 44.154H188.925V50.72C188.925 51.4387 188.785 52.0593 188.505 52.582C188.225 53.114 187.829 53.5247 187.315 53.814C186.802 54.1033 186.195 54.248 185.495 54.248C184.562 54.248 183.797 54.0007 183.199 53.506C182.602 53.0113 182.238 52.33 182.107 51.462H183.423C183.507 51.966 183.731 52.358 184.095 52.638C184.459 52.918 184.926 53.058 185.495 53.058C186.139 53.058 186.653 52.862 187.035 52.47C187.427 52.0873 187.623 51.5693 187.623 50.916V48.984L187.791 49.166C187.614 49.6793 187.292 50.0853 186.825 50.384C186.359 50.6733 185.817 50.818 185.201 50.818C184.548 50.818 183.983 50.6687 183.507 50.37C183.031 50.062 182.663 49.6513 182.401 49.138C182.149 48.6247 182.023 48.046 182.023 47.402ZM183.339 47.374C183.339 47.8033 183.423 48.1907 183.591 48.536C183.769 48.8813 184.011 49.1567 184.319 49.362C184.637 49.5673 185.005 49.67 185.425 49.67C185.873 49.67 186.256 49.572 186.573 49.376C186.891 49.18 187.133 48.9093 187.301 48.564C187.479 48.2187 187.567 47.822 187.567 47.374C187.567 46.926 187.483 46.534 187.315 46.198C187.147 45.862 186.905 45.596 186.587 45.4C186.27 45.204 185.887 45.106 185.439 45.106C185.001 45.106 184.623 45.2087 184.305 45.414C183.997 45.6193 183.759 45.8947 183.591 46.24C183.423 46.576 183.339 46.954 183.339 47.374ZM193.778 51.168C193.116 51.168 192.528 51.0187 192.014 50.72C191.501 50.412 191.1 49.992 190.81 49.46C190.521 48.9187 190.376 48.2933 190.376 47.584C190.376 46.8653 190.516 46.2353 190.796 45.694C191.086 45.1527 191.478 44.728 191.972 44.42C192.476 44.112 193.06 43.958 193.722 43.958C194.376 43.958 194.94 44.098 195.416 44.378C195.902 44.658 196.275 45.05 196.536 45.554C196.807 46.058 196.942 46.6507 196.942 47.332V47.822L191.076 47.836L191.104 46.954H195.626C195.626 46.3847 195.454 45.9273 195.108 45.582C194.763 45.2367 194.301 45.064 193.722 45.064C193.284 45.064 192.906 45.162 192.588 45.358C192.28 45.5447 192.042 45.8247 191.874 46.198C191.716 46.562 191.636 47.0007 191.636 47.514C191.636 48.3353 191.823 48.97 192.196 49.418C192.57 49.8567 193.106 50.076 193.806 50.076C194.32 50.076 194.74 49.9733 195.066 49.768C195.393 49.5627 195.612 49.264 195.724 48.872H196.956C196.788 49.6 196.429 50.1647 195.878 50.566C195.328 50.9673 194.628 51.168 193.778 51.168Z" fill="black"/>
</svg>
